<svg width="24" height="24" viewBox="0 0 24 24" fill="none" xmlns="http://www.w3.org/2000/svg">
<mask id="mask0_2313_8992" style="mask-type:alpha" maskUnits="userSpaceOnUse" x="0" y="0" width="24" height="24">
<path d="M20.6083 3.01667H16.6667C16.6667 1.91667 15.75 1 14.65 1H9.51667C8.41667 1 7.5 1.91667 7.5 3.01667H3.55833C2.73333 3.01667 2 3.65833 2 4.48333V5.30833C2 6.13333 2.73333 6.86667 3.55833 6.86667H3.83333L4.65833 20.3417C4.65833 21.8083 5.85 23 7.40833 23H16.6667C18.1333 23 19.4167 21.8083 19.4167 20.3417L20.3333 6.86667H20.6083C21.4333 6.86667 22.1667 6.13333 22.1667 5.30833V4.48333C22.1667 3.65833 21.4333 3.01667 20.6083 3.01667ZM9.51667 2.00833H14.7417C15.2917 2.00833 15.75 2.46667 15.75 3.01667H8.50833C8.50833 2.46667 8.96667 2.00833 9.51667 2.00833ZM18.5917 20.25C18.5917 21.2583 17.7667 22.0833 16.7583 22.0833H7.40833C6.4 22.0833 5.575 21.2583 5.575 20.3417L4.75 6.86667H19.4167L18.5917 20.25ZM21.1583 5.30833C21.1583 5.58333 20.8833 5.85833 20.6083 5.85833H3.55833C3.28333 5.85833 3.00833 5.58333 3.00833 5.30833V4.48333C3.00833 4.20833 3.28333 3.93333 3.55833 3.93333H20.6083C20.8833 3.93333 21.1583 4.20833 21.1583 4.48333V5.30833Z" fill="#040000"/>
<path d="M12.0833 19.242C12.3583 19.242 12.5417 19.0587 12.5417 18.7837V9.25033C12.5417 8.97533 12.3583 8.79199 12.0833 8.79199C11.8083 8.79199 11.625 8.97533 11.625 9.25033V18.8753C11.625 19.0587 11.8083 19.242 12.0833 19.242Z" fill="#040000"/>
<path d="M15.475 19.242C15.75 19.242 15.9333 19.0587 15.9333 18.7837V9.25033C15.9333 8.97533 15.75 8.79199 15.475 8.79199C15.2 8.79199 15.0167 8.97533 15.0167 9.25033V18.8753C15.0167 19.0587 15.2 19.242 15.475 19.242Z" fill="#040000"/>
<path d="M8.69167 19.242C8.96667 19.242 9.15 19.0587 9.15 18.7837V9.25033C9.15 8.97533 8.96667 8.79199 8.69167 8.79199C8.41667 8.79199 8.23334 8.97533 8.23334 9.25033V18.8753C8.23334 19.0587 8.41667 19.242 8.69167 19.242Z" fill="#040000"/>
</mask>
<g mask="url(#mask0_2313_8992)">
<rect width="24" height="24" fill="#F0716E"/>
</g>
</svg>
