<svg width="24" height="24" viewBox="0 0 24 24" fill="none" xmlns="http://www.w3.org/2000/svg">
<mask id="mask0_2313_6118" style="mask-type:alpha" maskUnits="userSpaceOnUse" x="0" y="0" width="24" height="24">
<path d="M19.5 2H4.5C3.08333 2 2 3.08333 2 4.5V19.5C2 20.8333 3.08333 22 4.5 22H19.5C20.8333 22 22 20.9167 22 19.5V4.5C22 3.08333 20.9167 2 19.5 2ZM21.1667 19.5C21.1667 20.4167 20.4167 21.1667 19.5 21.1667H4.5C3.58333 21.1667 2.83333 20.4167 2.83333 19.5V4.5C2.83333 3.58333 3.58333 2.83333 4.5 2.83333H19.5C20.4167 2.83333 21.1667 3.58333 21.1667 4.5V19.5Z" fill="#040000"/>
<path d="M18.4167 6.08325H5.5V6.91659H18.4167V6.08325Z" fill="#040000"/>
<path d="M18.4167 9.75H5.5V10.5833H18.4167V9.75Z" fill="#040000"/>
<path d="M18.4167 13.4167H5.5V14.2501H18.4167V13.4167Z" fill="#040000"/>
<path d="M18.4167 17.0833H5.5V17.9166H18.4167V17.0833Z" fill="#040000"/>
</mask>
<g mask="url(#mask0_2313_6118)">
<rect width="24" height="24" fill="white"/>
</g>
</svg>
