<svg width="25" height="24" viewBox="0 0 25 24" fill="none" xmlns="http://www.w3.org/2000/svg">
<mask id="mask0_2313_6265" style="mask-type:alpha" maskUnits="userSpaceOnUse" x="0" y="0" width="25" height="24">
<path d="M20.75 1H4.25C2.69167 1 1.5 2.19167 1.5 3.75V20.25C1.5 21.7167 2.69167 23 4.25 23H20.75C22.2167 23 23.5 21.8083 23.5 20.25V3.75C23.5 2.19167 22.3083 1 20.75 1ZM22.5833 20.25C22.5833 21.2583 21.7583 22.0833 20.75 22.0833H4.25C3.24167 22.0833 2.41667 21.2583 2.41667 20.25V3.75C2.41667 2.74167 3.24167 1.91667 4.25 1.91667H20.75C21.7583 1.91667 22.5833 2.74167 22.5833 3.75V20.25Z" fill="#040000"/>
<path d="M7.55003 13.0084H15.0667L12.9584 14.9334C12.5917 15.3 12.5917 15.85 12.9584 16.2167C13.325 16.5834 13.875 16.5834 14.2417 16.2167L18 12.6417C18.0917 12.55 18.0917 12.4584 18.1834 12.3667C18.275 12.275 18.275 12.0917 18.275 12C18.275 11.9084 18.275 11.725 18.1834 11.6334C18.0917 11.5417 18.0917 11.45 18 11.3584L14.2417 7.78338C13.875 7.50838 13.325 7.50838 12.9584 7.96671C12.5917 8.33338 12.5917 8.88338 13.05 9.25005L15.1584 11.175H7.55003C7.00003 11.175 6.63336 11.5417 6.63336 12.0917C6.63336 12.6417 7.0917 13.0084 7.55003 13.0084Z" fill="#070001"/>
</mask>
<g mask="url(#mask0_2313_6265)">
<rect x="0.5" width="24" height="24" fill="white"/>
</g>
</svg>
